Coordinates
version=1
nRows=65
nColumns=12
inDegrees=yes

Units are S.I. units (second, meters, Newtons, ...)
Angles are in degrees

endheader
time	SC_y	SC_z	SC_x	AC_y	AC_z	AC_x	GH_y	GH_z	GH_yy	EL_x	PS_y
       0.0               -37.7          30.09          54.46           62.5          8.146        -0.0829         -116.4          8.942          138.0          73.39          139.8
   0.04972               -37.7          30.09          54.46           62.5          8.145       -0.08317         -116.4          8.941          138.0          73.39          139.8
   0.09943               -37.7          30.09          54.45          62.49          8.143       -0.08345         -116.3          8.941          137.9          73.39          139.8
    0.1491               -37.7          30.08          54.45          62.49          8.142       -0.08375         -116.3          8.941          137.9          73.39          139.8
    0.1989               -37.7          30.08          54.45          62.49           8.14       -0.08407         -116.3           8.94          137.9          73.39          139.8
    0.2486               -37.7          30.08          54.44          62.48          8.138       -0.08441         -116.3           8.94          137.9          73.39          139.8
    0.2983               -37.7          30.08          54.44          62.48          8.136       -0.08478         -116.3           8.94          137.8          73.39          139.8
     0.348               -37.7          30.07          54.44          62.47          8.134       -0.08517         -116.2          8.939          137.8          73.39          139.8
    0.3977               -37.7          30.07          54.43          62.47          8.132       -0.08558         -116.2          8.939          137.8          73.39          139.8
    0.4474               -37.7          30.07          54.43          62.46           8.13       -0.08603         -116.2          8.938          137.8          73.39          139.8
    0.4972               -37.7          30.07          54.42          62.45          8.127       -0.08651         -116.1          8.938          137.7          73.39          139.8
    0.5469               -37.7          30.06          54.42          62.45          8.124       -0.08703         -116.1          8.937          137.7          73.39          139.8
    0.5966               -37.7          30.06          54.41          62.44          8.121       -0.08759         -116.1          8.937          137.7          73.39          139.8
    0.6463               -37.7          30.05          54.41          62.43          8.118       -0.08819         -116.0          8.936          137.6          73.39          139.8
     0.696               -37.7          30.05           54.4          62.42          8.115       -0.08884         -116.0          8.936          137.6          73.39          139.8
    0.7457               -37.7          30.05           54.4          62.41          8.111       -0.08955         -115.9          8.935          137.5          73.39          139.8
    0.7955              -37.71          30.04          54.39           62.4          8.107       -0.09032         -115.9          8.934          137.5          73.39          139.8
    0.8452              -37.71          30.03          54.38          62.39          8.103       -0.09116         -115.8          8.933          137.4          73.39          139.8
    0.8949              -37.71          30.03          54.37          62.38          8.098       -0.09207         -115.8          8.932          137.3          73.39          139.8
    0.9446              -37.71          30.02          54.36          62.37          8.092       -0.09307         -115.7          8.931          137.3          73.39          139.8
    0.9943              -37.71          30.01          54.35          62.35          8.087       -0.09417         -115.7           8.93          137.2          73.39          139.8
     1.044              -37.71          30.01          54.34          62.34           8.08       -0.09538         -115.6          8.929          137.1          73.39          139.8
     1.094              -37.71           30.0          54.33          62.32          8.073       -0.09672         -115.5          8.928          137.0          73.39          139.8
     1.143              -37.71          29.99          54.31           62.3          8.065        -0.0982         -115.4          8.926          136.9          73.39          139.8
     1.193              -37.71          29.98           54.3          62.28          8.057       -0.09985         -115.3          8.924          136.8          73.39          139.8
     1.243              -37.71          29.97          54.28          62.26          8.047        -0.1017         -115.2          8.923          136.7          73.39          139.8
     1.293              -37.71          29.95          54.26          62.23          8.036        -0.1037         -115.0           8.92          136.5          73.39          139.8
     1.342              -37.72          29.94          54.24           62.2          8.024        -0.1061         -114.9          8.918          136.4          73.39          139.8
     1.392              -37.72          29.92          54.21          62.16           8.01        -0.1087         -114.7          8.915          136.2           73.4          139.8
     1.442              -37.72           29.9          54.18          62.12          7.995        -0.1116         -114.5          8.912          136.0           73.4          139.8
     1.491              -37.72          29.88          54.15          62.08          7.977         -0.115         -114.3          8.909          135.8           73.4          139.8
     1.541              -37.73          29.85          54.11          62.03          7.956        -0.1189         -114.1          8.905          135.5           73.4          139.8
     1.591              -37.73          29.82          54.07          61.97          7.932        -0.1234         -113.8            8.9          135.2           73.4          139.8
     1.641              -37.73          29.79          54.02           61.9          7.905        -0.1286         -113.5          8.895          134.8           73.4          139.8
      1.69              -37.74          29.75          53.96          61.82          7.873        -0.1347         -113.1          8.889          134.4           73.4          139.7
      1.74              -37.74           29.7          53.89          61.73          7.835        -0.1419         -112.6          8.882          133.9           73.4          139.7
      1.79              -37.75          29.65          53.81          61.61           7.79        -0.1505         -112.1          8.873          133.3           73.4          139.7
      1.84              -37.75          29.58          53.71          61.48          7.736        -0.1608         -111.4          8.862          132.6          73.41          139.7
     1.889              -37.76           29.5          53.59          61.32           7.67        -0.1732         -110.6           8.85          131.8          73.41          139.7
     1.939              -37.77           29.4          53.45          61.12           7.59        -0.1883         -109.7          8.834          130.7          73.41          139.7
     1.989              -37.79          29.28          53.27          60.87          7.492         -0.207         -108.5          8.815          129.4          73.42          139.7
     2.038               -37.8          29.12          53.05          60.57          7.369        -0.2304         -107.0          8.792          127.8          73.42          139.6
     2.088              -37.82          28.93          52.76          60.18          7.214        -0.2598         -105.1          8.762          125.8          73.43          139.6
     2.138              -37.85          28.69          52.41          59.69          7.017        -0.2971         -102.8          8.724          123.2          73.44          139.6
     2.188              -37.88          28.37          51.95          59.06          6.765        -0.3449         -99.73          8.675          119.9          73.45          139.5
     2.237              -37.92          27.97          51.36          58.26          6.442        -0.4063         -95.84          8.612          115.7          73.46          139.4
     2.287              -37.98          27.46          50.61          57.23          6.028        -0.4847         -90.86          8.533          110.3          73.48          139.4
     2.337              -38.05          26.81          49.66          55.93          5.509        -0.5832          -84.6          8.432          103.5           73.5          139.2
     2.386              -38.13          26.03          48.51          54.36          4.876        -0.7033         -76.97           8.31          95.21          73.53          139.1
     2.436              -38.23          25.12          47.18          52.53          4.142        -0.8425         -68.13          8.168          85.62          73.56          138.9
     2.486              -38.33          24.13          45.73          50.55          3.348        -0.9933         -58.56          8.015          75.23          73.59          138.8
     2.536              -38.43          23.14          44.29          48.57          2.553         -1.144         -48.99          7.862          64.84          73.63          138.6
     2.585              -38.53          22.23          42.95          46.74           1.82         -1.283         -40.15           7.72          55.25          73.66          138.5
     2.635              -38.61          21.45           41.8          45.16          1.187         -1.403         -32.52          7.598          46.97          73.68          138.3
     2.685              -38.68           20.8          40.86          43.87         0.6671         -1.502         -26.26          7.497          40.18          73.71          138.2
     2.734              -38.74          20.29          40.11          42.84          0.254          -1.58         -21.29          7.418          34.77          73.72          138.1
     2.784              -38.78          19.89          39.52          42.03       -0.06944         -1.642         -17.39          7.355          30.55          73.74          138.0
     2.834              -38.81          19.58          39.06          41.41        -0.3215         -1.689         -14.35          7.306          27.25          73.75          138.0
     2.884              -38.84          19.33           38.7          40.92        -0.5184         -1.727         -11.98          7.268          24.68          73.76          138.0
     2.933              -38.86          19.14          38.42          40.53        -0.6733         -1.756         -10.11          7.238          22.65          73.76          137.9
     2.983              -38.87          18.99           38.2          40.22        -0.7962          -1.78         -8.633          7.215          21.04          73.77          137.9
     3.033              -38.89          18.86          38.02          39.98        -0.8948         -1.798         -7.445          7.196          19.75          73.77          137.9
     3.082               -38.9          18.76          37.87          39.78        -0.9747         -1.813         -6.482           7.18          18.71          73.78          137.9
     3.132               -38.9          18.68          37.75          39.62          -1.04         -1.826         -5.694          7.168          17.85          73.78          137.8
     3.182              -38.91          18.62          37.65          39.48         -1.094         -1.836         -5.043          7.157          17.15          73.78          137.8
